<svg xmlns="http://www.w3.org/2000/svg" width="256" height="256">
  <path fill="#fff" d="M128 0C57.4 0 0 57.4 0 128s57.4 128 128 128 128-57.4 128-128S198.6 0 128 0"/>
  <path fill="#91dc47" d="M123.3 130.3c-1 2.5-2.4 5.3-3.7 8.3C115 149 109.8 162 108 170c-.8 3-1.2 6.7-1.2 10.7 0 1.6 0 3.2.3 5 7 2.3 14 3.7 21 3.7s14-1.2 20-3.2c-1-1.3-3-2.7-4-4.2-8-10.5-13-26-20-51.7m-31-52c-15 11-26 29.2-26 50 0 20.3 10 38.3 26 49.4 4-15.6 13-30 27-58.6l-3-7c-4-10-9-21-14-26-2-2-5-5-9-7"/>
  <path fill="#63b132" d="M181.4 198.4c-8-1-14.8-2.3-20.6-4.3-10 5-21 8-32.7 8-40 0-73-33-73-73 0-22 10-42 25-55-4-1-8-1-12-1-21 0-44 12-54 44.8V130c0 63 51 115 115 115 39.5 0 74-19.4 95-49.2-11.3 3-22.2 4.3-31.5 4.3h-10"/>
  <path fill="#90b4fe" d="M159.7 176c.7.3 2.3 1 4.5 1.5 15.2-11 25-29 25-49.3 0-33.8-27.3-61-61-61-6.8 0-13.2 1-19.3 3 12 14 18 34.4 24 56.5 0 0 2 6.2 5 14.3 3 8 7 18.2 12 25.5 3 5 6 8.4 9 9.5"/>
  <path fill="#5881d8" d="M128 12.5c-38.6 0-73 19-94 48.4 11-7 22.2-10 32-10 13.4 0 24 4 29 7l3.5 2c9-4 19-7 29.6-7 41 0 74 33 74 73.2 0 20.4-8 39-22 52.2 4 .2 7 .4 11 .4 13 0 27-3 37-11.7 7-5.5 13-14 16-26.3 1-5 1-10 1-15 0-63-52-115-116-115"/>
</svg>
