<svg xmlns="http://www.w3.org/2000/svg" viewBox="0 0 14 16">
  <path fill="#000" fill-rule="evenodd" d="M7 1C3 1 0 4 0 8s3 7 7 7h1.4c-.2-.2-.2-1 0-1.2.2-.4.8-1.5.2-1.8-.6-.4-.5-.5-.8-1-.4-.3-.3-.4-.3-.5 0-.4.4-1 .4-1v-.3L7.4 9h-.2s-.5 0-.5-.2l-.3-.4h-.3L5 7.7c-.6 0-.6-.4-.6-.6 0-.2-.3-.5-.5-.7-.2-.2-.2-.5-.3-.4L4 7l-.4-.5c0-.2.2 0-.3-1-.4-.8.2-1.2.2-1.7 0-.4.4.2.2 0-.2-.4 0-1 0-1.2-.3-.2-1 .3-1 .3 0-.4.7-.7 1-1 .6-.4 1 0 1.3 0h.3c0-.2 0-.2.3-.2s.4.4 1 .4c.3 0 0 0 0 .2l-.4.3c-.3.2 0 .2.5.6.6.4.4-.3.4-.6s.5 0 .5 0c.3.2.2 0 .5 0 .2 0 1 .7 1 .7-1 .4-.4.5-.3.6l-.3.3c-.2-.2-.2 0-.3 0v.3c-.5 0-.3.7-.3.8 0 .2-.4.4-.5.6 0 .2.3.6 0 .7 0 0-.3-.7-1.3-.5-.3 0-1 .5-.6 1 .3.8 1 0 1 0 .3 0 0 .6 0 .6s.6 0 .6.6.8.5 1 .5l.7-.5s.4-.3 1 0l1.2.6c.2.2 0 .5.2.6.2.2 1 0 1.3.3.2.3-1 2-1.2 2.2-.4.2-.5.7-1 1l-1 1c-.6 0-.6.5-.8.7 3-.8 5.5-3.6 5.5-7 0-3.8-3.2-7-7-7zm1.6 6.6s-.2.2-.7 0C7.3 7 7 7.2 7 7h.2c.4-.2 1 .3 1 .3.2 0 .3-.2.5 0 .2 0 0 0 0 0zm-2.3-6c.2 0 .2-.2.2-.2s.6-.2.5 0c0 .3-.6.4-.7.3zm1.3 1H7C7.3 2 7 2 6.8 2h-.2.7l.5.3v.3zm1.4 0L8 2c-.5-.5-.8-.3-1-.4 0 0 0-.2.2-.3.2-.2.7 0 1 0 .3 0 .7.3.7.6 0 .2.2.4 0 .5z"/>
</svg>
