<svg xmlns="http://www.w3.org/2000/svg" width="768" height="1024">
  <path d="M384 960C172 960 0 902.6 0 832V704c0-11 5.6-21.7 13.6-32 42.8 55 191.6 96 370.4 96s327.6-41 370.4-96c8 10.3 13.6 21 13.6 32v128c0 70.6-172 128-384 128zm0-256C172 704 0 646.6 0 576V448c0-6.8 2.6-13.4 6-20 2-4 4.5-8 7.6-12 42.8 55 191.6 96 370.4 96s327.6-41 370.4-96c3 4 5.7 8 7.6 12 3.4 6.6 6 13.2 6 20v128c0 70.6-172 128-384 128zm0-256C172 448 0 390.7 0 320V192C0 121.3 172 64 384 64s384 57.3 384 128v128c0 70.7-172 128-384 128zm0-320c-141.4 0-256 28.6-256 64s114.6 64 256 64 256-28.6 256-64-114.6-64-256-64z"/>
</svg>
