<svg xmlns="http://www.w3.org/2000/svg" viewBox="0 0 630 630">
  <path fill="#f7df1e" d="M0 0h630v630H0z"/>
  <path d="M165.7 526.5l48.2-29.2c9 16.5 17 30.4 38 30.4 19 0 31-7.6 31-37.2V289.2h59v202.2c0 61.3-36 89.2-88.4 89.2-47.4 0-75-24.5-89-54m210-6.6l48-27.8c12.8 20.7 29.3 36 58.5 36 24.6 0 40-12.3 40-29.2 0-20.3-16-27.5-43-39.3l-14.7-6.4c-42.7-18.2-71-41-71-89.2 0-44 33.8-78 86.7-78 37.7 0 64.8 13 84 48l-46 29.6c-10-18.2-21-25.4-38-25.4-17.3 0-28.3 11-28.3 25.4 0 17.6 11 25 37 36l14.8 6c50.2 22 78.4 44 78.4 93 0 53.5-42 82.7-98 82.7-55 0-90.7-26.2-108-60.5"/>
</svg>
